# xmcd CD database file
#
# Track frame offsets:
#	187
#	20877
#	38492
#	55225
#	73545
#	88545
#	109592
#	126485
#	143225
#	160882
#	178532
#	194962
#	215952
#	237437
#
# Disc length: 3426 seconds
#
# Revision: 0
# Processed by: cddbd v1.5.1PL0 Copyright (c) Steve Scherf et al.
# Submitted via: CDex 1.51
#
DISCID=d60d600e
DTITLE=小泉今日子・荻野目洋子・酒井法子ほか - l Love "Dance Number" ?（Victorオムニバス）
DYEAR=1998
DGENRE=JPop
TTITLE0=トイ・ボーイ
TTITLE1=Good Morning-Call
TTITLE2=GUANBARE
TTITLE3=ストレンジャーtonight
TTITLE4=反逆のヒーロー
TTITLE5=水のルージュ
TTITLE6=She's A Lady
TTITLE7=ナオミの夢
TTITLE8=GIVE ME UP
TTITLE9=北風のキャロル
TTITLE10=キスを止めないで
TTITLE11=春休み
TTITLE12=すてきなジェラシー
TTITLE13=D2D
EXTD=YEAR: 1998
EXTT0=
EXTT1=
EXTT2=
EXTT3=
EXTT4=
EXTT5=
EXTT6=
EXTT7=
EXTT8=
EXTT9=
EXTT10=
EXTT11=
EXTT12=
EXTT13=
PLAYORDER=
